<?xml version="1.0" encoding="UTF-8"?>
<svg width="18px" height="18px" viewBox="0 0 18 18" version="1.1" xmlns="http://www.w3.org/2000/svg" xmlns:xlink="http://www.w3.org/1999/xlink">
    <!-- Generator: Sketch 49 (51002) - http://www.bohemiancoding.com/sketch -->
    <title>Fill 1 Copy 2</title>
    <desc>Created with Sketch.</desc>
    <defs>
        <linearGradient x1="48.387956%" y1="51.612044%" x2="86.9567467%" y2="-13.0432533%" id="linearGradient-1">
            <stop stop-color="#FFE000" offset="0%"></stop>
            <stop stop-color="#FCDD00" stop-opacity="0.649626359" offset="100%"></stop>
        </linearGradient>
    </defs>
    <g id="Ali__Узнать-точный-процент-кешбэка-на-афилиатный-товар" stroke="none" stroke-width="1" fill="none" fill-rule="evenodd">
        <path d="M18,8.97473206 C17.9495773,9.90628298 17.7943188,10.8294906 17.4975864,11.708805 C17.1867067,12.5815898 16.7662754,13.408305 16.2348416,14.1548516 C15.6899859,14.8919667 15.0508143,15.547825 14.3376409,16.1061026 C13.6117712,16.64987 12.8151646,17.0851742 11.9782924,17.409113 C11.1352533,17.721081 10.2519486,17.8944772 9.36864388,17.9641259 C8.48243715,18.0047542 7.59913244,17.9347428 6.74158323,17.7395815 C5.88983808,17.5241059 5.06928973,17.2059711 4.31621352,16.7710297 C3.57111788,16.3233919 2.89313164,15.7799872 2.30111798,15.1582278 C1.72433996,14.5205071 1.23970132,13.8105986 0.858084665,13.0517183 C0.488438877,12.2848575 0.242492023,11.4693877 0.0977533871,10.6426725 C-0.0266710539,9.81015331 -0.0284848213,8.97037902 0.0705468767,8.14656588 C0.198598852,7.32565478 0.420241224,6.52433236 0.761954995,5.77597194 C1.11672789,5.03450384 1.56400292,4.345635 2.09797603,3.73330714 C2.64609653,3.13367565 3.269307,2.61348717 3.94765599,2.18580083 C4.63579933,1.77081085 5.37835568,1.46392142 6.14195174,1.25316165 C6.91171461,1.05691202 7.70179167,0.987626107 8.48425091,1.00177349 C7.70179167,1.05219623 6.93057779,1.18532675 6.19781578,1.43780317 C5.47085782,1.70442697 4.78307724,2.05883711 4.16240604,2.50611214 C3.55080369,2.96680905 3.00739899,3.50368419 2.54488831,4.10041365 C2.09652502,4.70983949 1.74030111,5.37585486 1.47440281,6.07161602 C1.22120089,6.77390674 1.08516834,7.50703151 1.03002981,8.24015628 C1.00391156,8.97654583 1.06703067,9.7103961 1.23244625,10.4181281 C1.41853878,11.1204189 1.68443708,11.7955031 2.04791605,12.4143605 C2.42372865,13.0259628 2.87644499,13.5817012 3.39155492,14.0674281 C3.92298875,14.5375566 4.51028662,14.9311441 5.13567361,15.2412983 C5.76831567,15.5391189 6.43832133,15.7328293 7.11594482,15.8481849 C7.7982841,15.9432263 8.48860396,15.9381477 9.16296266,15.8532634 C9.83333108,15.7397216 10.4851991,15.5554428 11.0924484,15.2721323 C11.6928054,14.9761255 12.2507202,14.6072052 12.7466042,14.1693618 C13.2297918,13.7170082 13.6476838,13.2062513 13.9919369,12.653415 C14.3224053,12.0907844 14.5632736,11.4875254 14.7297774,10.870119 C14.8817712,10.2465457 14.9289291,9.60809962 14.9151445,8.97473206 C15.0752126,7.90851657 15.5789923,7.37540882 16.4264834,7.37540882 C17.2739745,7.37540882 17.7984801,7.90851657 18,8.97473206 Z" id="Fill-1-Copy-2" fill="url(#linearGradient-1)" transform="translate(9.000000, 9.487614) scale(-1, 1) translate(-9.000000, -9.487614) "></path>
    </g>
</svg>